<?xml version="1.0" encoding="UTF-8"?>
<svg width="196px" height="63px" viewBox="0 0 196 63" version="1.1" xmlns="http://www.w3.org/2000/svg" xmlns:xlink="http://www.w3.org/1999/xlink">
    <!-- Generator: Sketch 45.2 (43514) - http://www.bohemiancoding.com/sketch -->
    <title>Law-SpiritMark</title>
    <desc>Created with Sketch.</desc>
    <defs></defs>
    <g id="Components" stroke="none" stroke-width="1" fill="none" fill-rule="evenodd">
        <g transform="translate(-251.000000, -159.000000)" id="Header">
            <g transform="translate(208.000000, 110.000000)">
                <g id="Law-SpiritMark" transform="translate(43.000000, 49.000000)">
                    <g id="LAW-spritmark-paths-01-1">
                        <path d="M165.736955,1.85365385 L163.963276,0.0864230769 L173.03735,0.0864230769 L173.03735,35.0336538 C173.03735,35.3236154 173.087358,35.9802692 173.72214,35.9802692 L185.650716,35.9802692 C186.232263,35.9802692 186.32986,35.0481923 186.32986,34.7243077 L186.32986,0.0864230769 L195.403934,0.0864230769 L193.633481,1.85365385 L193.633481,35.7638077 C193.633481,37.5132692 192.369564,43.0790769 186.583934,43.0790769 L172.786502,43.0790769 C167.06056,43.0790769 165.736955,37.6174615 165.736955,35.7638077 L165.736955,1.85365385" id="Fill-2" fill="#1A1919"></path>
                        <polyline id="Fill-3" fill="#AA0000" points="44.1725926 6.68365385 44.1725926 0.132461538 22.4907984 0.132461538 24.3007737 3.21057692 24.3007737 39.8830385 22.4907984 42.9530769 44.1725926 42.9530769 44.1725926 36.4010769 31.068823 36.4010769 31.068823 24.8930769 40.7954239 24.8930769 40.7954239 18.1900385 31.068823 18.1900385 31.068823 6.68365385 44.1725926 6.68365385"></polyline>
                        <polyline id="Fill-4" fill="#AA0000" points="125.095588 36.4010769 125.095588 0.132461538 116.514337 0.132461538 118.328346 3.21057692 118.328346 42.9530769 137.69363 42.9530769 137.69363 36.4010769 125.095588 36.4010769"></polyline>
                        <polyline id="Fill-5" fill="#AA0000" points="114.120395 6.68365385 114.120395 0.132461538 93.3887572 0.132461538 93.3887572 6.68365385 100.367325 6.68365385 100.367325 39.8830385 98.5670288 42.9530769 108.938897 42.9530769 107.137794 39.8830385 107.137794 6.68365385 114.120395 6.68365385"></polyline>
                        <polyline id="Fill-6" fill="#AA0000" points="90.7826831 6.68365385 90.7826831 0.132461538 70.0494321 0.132461538 70.0494321 6.68365385 77.0296132 6.68365385 77.0296132 39.8830385 75.2260905 42.9530769 85.6076379 42.9530769 83.7976626 39.8830385 83.7976626 6.68365385 90.7826831 6.68365385"></polyline>
                        <polyline id="Fill-7" fill="#AA0000" points="161.762107 6.68365385 161.762107 0.132461538 140.094831 0.132461538 141.90158 3.21057692 141.90158 39.8830385 140.094831 42.9530769 161.762107 42.9530769 161.762107 36.4010769 148.672856 36.4010769 148.672856 24.8930769 158.395424 24.8930769 158.395424 18.1900385 148.672856 18.1900385 148.672856 6.68365385 161.762107 6.68365385"></polyline>
                        <path d="M70.406749,39.8830385 L70.406749,39.8830385 L63.2313745,0.132461538 L55.3470123,0.132461538 L48.177284,39.8830385 L46.3624691,42.9530769 L54.6380247,42.9530769 L54.6380247,39.8830385 L55.3470123,35.7969231 L63.2313745,35.7969231 L63.9435885,39.8830385 L63.9435885,42.9530769 L72.2175309,42.9530769 L70.406749,39.8830385 Z M56.6068971,29.0898462 L59.2895967,11.8738846 L61.96907,29.0898462 L56.6068971,29.0898462 L56.6068971,29.0898462 Z" id="Fill-8" fill="#AA0000"></path>
                        <path d="M7.0301893,10.6138846 L7.0301893,9.1245 C7.0301893,7.6335 7.80854321,6.69496154 8.9127572,6.69496154 L13.112642,6.69496154 C13.801465,6.69496154 14.1434568,7.41138462 14.1434568,8.03088462 L14.1434568,14.0869615 L20.9042469,10.5218077 L20.9042469,8.53165385 C20.9042469,4.96569231 19.2975309,0.142153846 13.4465679,0.142153846 L7.0301893,0.142153846 C1.16874074,0.142153846 0.264559671,6.13038462 0.264559671,8.53165385 L0.264559671,9.76823077 C0.264559671,12.1703077 -0.167769547,15.4802308 5.34281481,20.9798077 C9.97502881,26.1005769 13.8434074,27.8556923 13.8434074,32.5588846 L13.8434074,34.5619615 C13.6659588,35.7024231 12.9585844,36.4010769 12.0052016,36.4010769 L8.06100412,36.4010769 C7.3657284,36.4010769 7.0301893,35.6903077 7.0301893,35.0780769 L7.0301893,28.9905 L0.264559671,28.9905 L0.264559671,35.1031154 C0.264559671,37.5165 1.16874074,42.9530769 7.0301893,42.9530769 L14.1055473,42.9530769 C19.2362305,42.9530769 20.5679012,38.7942692 20.8260082,36.1361538 L20.8260082,33.1703077 C20.8260082,27.5956154 18.65307,25.0215 14.2079835,20.5896923 C7.94727572,14.3413846 7.0301893,14.2355769 7.0301893,10.6138846" id="Fill-9" fill="#AA0000"></path>
                        <path d="M41.6294321,61.0849615 L42.6820247,60.5026154 C43.0691852,61.1447308 43.5652346,61.6535769 44.5694321,61.6535769 C45.4042469,61.6535769 45.9970864,61.2053077 45.9970864,60.5276538 C45.9970864,59.8128462 45.5131358,59.4970385 44.6178272,59.0980385 L44.0733827,58.8549231 C42.8756049,58.3226538 42.149679,57.7168846 42.149679,56.4447692 C42.149679,55.2211154 43.0933827,54.3488077 44.4605432,54.3488077 C45.5494321,54.3488077 46.2874568,54.7607308 46.7835062,55.6451538 L45.7793086,56.2630385 C45.4647407,55.7170385 45.1017778,55.4634231 44.4605432,55.4634231 C43.8072099,55.4634231 43.3958519,55.8632308 43.3958519,56.4205385 C43.3958519,57.0384231 43.746716,57.3170769 44.5815309,57.6805385 L45.1138765,57.9228462 C46.5173333,58.5407308 47.2674568,59.1941538 47.2674568,60.5155385 C47.2674568,61.9564615 46.1422716,62.7924231 44.5936296,62.7924231 C43.0328889,62.7924231 42.0891852,62.0170385 41.6294321,61.0849615" id="Fill-10" fill="#1A1919"></path>
                        <path d="M49.5057284,58.5649615 C49.5057284,56.1055385 51.3931358,54.3488077 53.7273909,54.3488077 C55.2034403,54.3488077 56.2923292,54.894 57.0182551,55.9843846 L56.0390617,56.6870769 C55.5785021,55.9722692 54.8041811,55.4997692 53.7273909,55.4997692 C52.021465,55.4997692 50.8123951,56.8082308 50.8123951,58.5649615 C50.8123951,60.3216923 52.021465,61.6414615 53.7273909,61.6414615 C54.8646749,61.6414615 55.6277037,61.1334231 56.1592428,60.3459231 L57.1400494,61.0356923 C56.4254156,62.1260769 55.2647407,62.7924231 53.7273909,62.7924231 C51.3931358,62.7924231 49.5057284,61.0243846 49.5057284,58.5649615" id="Fill-11" fill="#1A1919"></path>
                        <polyline id="Fill-12" fill="#1A1919" points="59.8017778 54.4457308 61.0842469 54.4457308 61.0842469 58.1166923 65.0405432 58.1166923 65.0405432 54.4457308 66.3230123 54.4457308 66.3230123 62.6833846 65.0405432 62.6833846 65.0405432 59.2547308 61.0842469 59.2547308 61.0842469 62.6833846 59.8017778 62.6833846 59.8017778 54.4457308"></polyline>
                        <path d="M76.315786,58.5649615 C76.315786,56.8082308 75.106716,55.4876538 73.3878848,55.4876538 C71.6698601,55.4876538 70.4486914,56.8082308 70.4486914,58.5649615 C70.4486914,60.3216923 71.6698601,61.6414615 73.3878848,61.6414615 C75.106716,61.6414615 76.315786,60.3216923 76.315786,58.5649615 Z M69.1420247,58.5649615 C69.1420247,56.1055385 71.0294321,54.3358846 73.3878848,54.3358846 C75.7350453,54.3358846 77.6224527,56.1055385 77.6224527,58.5649615 C77.6224527,61.0243846 75.7350453,62.7924231 73.3878848,62.7924231 C71.0294321,62.7924231 69.1420247,61.0243846 69.1420247,58.5649615 L69.1420247,58.5649615 Z" id="Fill-13" fill="#1A1919"></path>
                        <path d="M87.2409712,58.5649615 C87.2409712,56.8082308 86.0319012,55.4876538 84.31307,55.4876538 C82.5950453,55.4876538 81.3738765,56.8082308 81.3738765,58.5649615 C81.3738765,60.3216923 82.5950453,61.6414615 84.31307,61.6414615 C86.0319012,61.6414615 87.2409712,60.3216923 87.2409712,58.5649615 Z M80.0672099,58.5649615 C80.0672099,56.1055385 81.9538107,54.3358846 84.31307,54.3358846 C86.6602305,54.3358846 88.5476379,56.1055385 88.5476379,58.5649615 C88.5476379,61.0243846 86.6602305,62.7924231 84.31307,62.7924231 C81.9538107,62.7924231 80.0672099,61.0243846 80.0672099,58.5649615 L80.0672099,58.5649615 Z" id="Fill-14" fill="#1A1919"></path>
                        <polyline id="Fill-15" fill="#1A1919" points="91.3666502 54.4457308 92.6499259 54.4457308 92.6499259 61.5574615 96.4481317 61.5574615 96.4481317 62.6833846 91.3666502 62.6833846 91.3666502 54.4457308"></polyline>
                        <path d="M109.937449,58.5649615 C109.937449,56.8082308 108.727572,55.4876538 107.009547,55.4876538 C105.291523,55.4876538 104.070354,56.8082308 104.070354,58.5649615 C104.070354,60.3216923 105.291523,61.6414615 107.009547,61.6414615 C108.727572,61.6414615 109.937449,60.3216923 109.937449,58.5649615 Z M102.763687,58.5649615 C102.763687,56.1055385 104.651095,54.3358846 107.009547,54.3358846 C109.357514,54.3358846 111.244115,56.1055385 111.244115,58.5649615 C111.244115,61.0243846 109.357514,62.7924231 107.009547,62.7924231 C104.651095,62.7924231 102.763687,61.0243846 102.763687,58.5649615 L102.763687,58.5649615 Z" id="Fill-16" fill="#1A1919"></path>
                        <polyline id="Fill-17" fill="#1A1919" points="113.663868 54.4457308 118.794551 54.4457308 118.794551 55.5724615 114.947144 55.5724615 114.947144 58.2257308 118.431588 58.2257308 118.431588 59.3645769 114.947144 59.3645769 114.947144 62.6833846 113.663868 62.6833846 113.663868 54.4457308"></polyline>
                        <polyline id="Fill-18" fill="#1A1919" points="125.581152 54.4457308 126.864428 54.4457308 126.864428 61.5574615 130.662634 61.5574615 130.662634 62.6833846 125.581152 62.6833846 125.581152 54.4457308"></polyline>
                        <path d="M137.437942,60.1157308 L136.54344,57.8735769 C136.361152,57.4261154 136.143374,56.7234231 136.131276,56.6620385 C136.119177,56.6983846 135.925597,57.4010769 135.732823,57.8735769 L134.836708,60.1157308 L137.437942,60.1157308 Z M136.082881,54.3609231 L136.228066,54.3609231 L139.833498,62.6833846 L138.502634,62.6833846 L137.897695,61.1810769 L134.401152,61.1810769 L133.796214,62.6833846 L132.56214,62.6833846 L136.082881,54.3609231 L136.082881,54.3609231 Z" id="Fill-19" fill="#1A1919"></path>
                        <path d="M140.656214,54.4457308 L141.999177,54.4457308 L143.451029,58.8315 C143.597021,59.2797692 143.753498,59.9574231 143.766403,60.0066923 C143.777695,59.9703462 143.972082,59.2910769 144.165663,58.8315 L146.05307,54.3609231 L146.209547,54.3609231 L148.109053,58.8315 C148.290535,59.2676538 148.472823,59.9331923 148.496214,60.0066923 C148.496214,59.9703462 148.665597,59.2797692 148.822881,58.8315 L150.274733,54.4457308 L151.520905,54.4457308 L148.678502,62.769 L148.520412,62.769 L146.47572,57.8622692 C146.306337,57.4737692 146.14986,56.9051538 146.136955,56.8688077 C146.124856,56.8922308 145.931276,57.4737692 145.773992,57.8622692 L143.680905,62.769 L143.524428,62.769 L140.656214,54.4457308" id="Fill-20" fill="#1A1919"></path>
                    </g>
                </g>
            </g>
        </g>
    </g>
</svg>